/* XPM */
static char * collectible[] = {
"32 32 4 1",
"  c #1e1e1e",
". c #8a5a00",
"o c #d49a0b",
"O c #ffd24a",
"                                ",
"                                ",
"                                ",
"                                ",
"                                ",
"                                ",
"            ........            ",
"          ..oooooooo..          ",
"         .oooooooooooo.         ",
"        .oooooooooooooo.        ",
"       .oooooOOOOOOooooo.       ",
"       .ooooOOOOOOOOoooo.       ",
"      .ooooOOOOOOOOOOoooo.      ",
"      .oooOOOOOOOOOOOOooo.      ",
"      .oooOOOOOOOOOOOOooo.      ",
"      .oooOOOOOOOOOOOOooo.      ",
"      .oooOOOOOOOOOOOOooo.      ",
"      .oooOOOOOOOOOOOOooo.      ",
"      .oooOOOOOOOOOOOOooo.      ",
"      .ooooOOOOOOOOOOoooo.      ",
"       .ooooOOOOOOOOoooo.       ",
"       .oooooOOOOOOooooo.       ",
"        .oooooooooooooo.        ",
"         .oooooooooooo.         ",
"          ..oooooooo..          ",
"            ........            ",
"                                ",
"                                ",
"                                ",
"                                ",
"                                ",
"                                "
};