/* XPM */
static char * exit_closed[] = {
"32 32 6 1",
"  c #0f0f0f",
"w c #6b3e1f",
"W c #8e5730",
"s c #3a2a15",
"m c #bfbfbf",
"x c #a01d1d",
"  s                          s  ",
"  s                          s  ",
"ssssssssssssssssssssssssssssssss",
"  s                          s  ",
"  s wwWWWWWWwwwwwwWWWWWWwwww s  ",
"  s wwWWWWWWwwwwwwWWWWWWwwww s  ",
"  s wwxWWWWWwwwwwwWWWWWWwxww s  ",
"  s wwWxWWWWwwwwwwWWWWWWxwww s  ",
"  s wwWWxWWWwwwwwwWWWWWxwwww s  ",
"  s wwWWWxWWwwwwwwWWWWxWwwww s  ",
"  s wwWWWWxWwwwwwwWWWxWWwwww s  ",
"  s wwWWWWWxwwwwwwWWxWWWwwww s  ",
"  s wwWWWWWWxwwwwwWxWWWWwwww s  ",
"  s wwWWWWWWwxwwwwxWWWWWwwww s  ",
"  s wwWWWWWWwwxwwxWWWWWWwwww s  ",
"  s wwWWWWWWwwwxxwWWWWWWwwww s  ",
"  s wwWWWWWWwwwxxwWWWWWWwwww s  ",
"  s wwWWWWWWwwxwwxWWWWWWwwww s  ",
"  s wwWWWWWWwxwwwwxWWWWWwwww s  ",
"  s wwWWWWWWxwwwwwWxWWWWwwww s  ",
"  s wwWWWWWxwwwwwwWWxWWWwwww s  ",
"  s wwWWWWxWwwwwwwWWWxWWwwww s  ",
"  s wwWWWxWWwwwwwwWWWWxWwwww s  ",
"  s wwWWxWWWwwwwwwWWWWWxwwww s  ",
"  s wwWxWWWWwwwwwwWWWWWWxwww s  ",
"  s wwxWWWWWwwwwwwWWWWWWwxww s  ",
"  s wwWWWWWWwwwwwwWWWWWWwwww s  ",
"  s wwWWWWWWwwwwwwWWWWWWwwww s  ",
"  s                          s  ",
"ssssssssssssssssssssssssssssssss",
"  s                          s  ",
"  s                          s  "
};