/* XPM */
static char * exit_open[] = {
"32 32 6 1",
"  c #0f0f0f",
"w c #6b3e1f",
"W c #8e5730",
"s c #3a2a15",
"g c #2a6f2a",
"G c #50b050",
"WWswwwWWWwwwWWWwwwWWWwwwWWWwwsWW",
"WWswwWWWwwwWWWwwwWWWwwwWWWwwwsWW",
"ssssssssssssssssssssssssssssssss",
"wwsWWWwwwWWWwwwWWWwwwWWWwwwWWsww",
"wwsWWwwwWWWwwwWWWwwwWWWwwwWWWsww",
"wWsWwwwWWWwwwWWWwwwWWWwwwWWWwswW",
"WWswww                    WwwsWW",
"WWswwW                    wwwsWW",
"WwswWW                    wwWsWw",
"wwsWWW                    wWWsww",
"wwsWWw                    WWWsww",
"wWsWww                    WWwswW",
"WWswww                    WwwsWW",
"WWswwW                    wwwsWW",
"WwswWW    G               wwWsWw",
"wwsWWW    GG              wWWsww",
"wwsWWw    GGG             WWWsww",
"wWsWww    GG              WWwswW",
"WWswww    G               WwwsWW",
"WWswwW                    wwwsWW",
"WwswWW                    wwWsWw",
"wwsWWW                    wWWsww",
"wwsWWw                    WWWsww",
"wWsWww                    WWwswW",
"WWswww                    WwwsWW",
"WWswwW                    wwwsWW",
"WwswWWWwwwWWWwwwWWWwwwWWWwwwWsWw",
"wwsWWWwwwWWWwwwWWWwwwWWWwwwWWsww",
"wwsWWwwwWWWwwwWWWwwwWWWwwwWWWsww",
"ssssssssssssssssssssssssssssssss",
"WWswwwWWWwwwWWWwwwWWWwwwWWWwwsWW",
"WWswwWWWwwwWWWwwwWWWwwwWWWwwwsWW"
};