	/* XPM */
	static char * floor[] = {
	"32 32 4 1",
	"  c #0c1b0c",
	". c #1e3a1e",
	"+ c #2d5a2d",
	"* c #3c7a3c",
	"*. . . . . . . ..+.+.+.*.*. . . ",
	" + + *  . . . . . . . ..........",
	".+...++..**..  ..  ..  ... .+..+",
	". *..  ... +.. +..  +.. *..  .. ",
	". . . . ..+.. ..*.*.+.*. . . . .",
	"..+.....*.*.+.*. + + + +  .  *  ",
	"*..*+..+ ..  ..  ..  .. .*+..++.",
	" +.. +.   .. *... +.. +... +.  .",
	" ..+.+.+ . . ..+. . . . . . . . ",
	". . . . . . . . ....+.+.........",
	".  ..  .. *..  .+..+*..*+..++..+",
	".. *+.. .. +.. * +.  +..*..  +. ",
	"+.*.+.+.+.+...+. . . . . . . . .",
	" + + . +*. .*.*.. . . . . .   . ",
	" ..  ..  ..  .. .  .. *..**..*+.",
	". +.. +.. ..  .... +.. +.. +.. +",
	". . . . . . ..+..+.*.*. . . . . ",
	"......+.+.+.*.*.. ............+.",
	"+..+*..* ..  .. .  ... .+..+*..*",
	" ..  +.. +..  ..+.. *..  ..  +..",
	" . . . ..+.+.+.+ . .*. . . . . .",
	". . . . . . . .  + * + +. . . . ",
	". *..**..  ..  ..++..+... *..**.",
	".. +.. ++.. ..  . *.. *... +.. +",
	"+.+.+.*.. ..+.+.. . . ... . . . ",
	"*. . + ++.*.*. .+.+.+.*.....+.+.",
	" ..  ..  ..  .. *..* .. +..+*..*",
	". ... +. *... .. +.. *.. +.  +..",
	".*. .*.*.+.*.+.+.+.+ ..+ . . . .",
	"......... ... . . . . . . . . . ",
	".. ..  ..  ..  ..  ..  ..  .. *.",
	"*.. +.. +.. +.. ..  .. *.. +.. +"
	};