/* XPM */
static char * wall[] = {
"32 32 4 1",
"  c #1b1b1b",
". c #3a3a3a",
"+ c #666666",
"# c #8a8a8a",
"                                ",
" .+##+.# .+##+.# .+##+.# .+##+.#",
" .+##+.# .+##+.# .+##+.# .+##+.#",
" .+##+.# .+##+.# .+##+.# .+##+.#",
" .+##+.# .+##+.# .+##+.# .+##+.#",
" .+##+.# .+##+.# .+##+.# .+##+.#",
" .+##+.# .+##+.# .+##+.# .+##+.#",
" .+##+.# .+##+.# .+##+.# .+##+.#",
"                                ",
"#+.# .+##+.# .+##+.# .+##+.# .+#",
"#+.# .+##+.# .+##+.# .+##+.# .+#",
"#+.# .+##+.# .+##+.# .+##+.# .+#",
"#+.# .+##+.# .+##+.# .+##+.# .+#",
"#+.# .+##+.# .+##+.# .+##+.# .+#",
"#+.# .+##+.# .+##+.# .+##+.# .+#",
"#+.# .+##+.# .+##+.# .+##+.# .+#",
"                                ",
" .+##+.# .+##+.# .+##+.# .+##+.#",
" .+##+.# .+##+.# .+##+.# .+##+.#",
" .+##+.# .+##+.# .+##+.# .+##+.#",
" .+##+.# .+##+.# .+##+.# .+##+.#",
" .+##+.# .+##+.# .+##+.# .+##+.#",
" .+##+.# .+##+.# .+##+.# .+##+.#",
" .+##+.# .+##+.# .+##+.# .+##+.#",
"                                ",
"#+.# .+##+.# .+##+.# .+##+.# .+#",
"#+.# .+##+.# .+##+.# .+##+.# .+#",
"#+.# .+##+.# .+##+.# .+##+.# .+#",
"#+.# .+##+.# .+##+.# .+##+.# .+#",
"#+.# .+##+.# .+##+.# .+##+.# .+#",
"#+.# .+##+.# .+##+.# .+##+.# .+#",
"#+.# .+##+.# .+##+.# .+##+.# .+#"
};